# xmcd CD database file
#
# Track frame offsets:
#	150
#	18247
#	42614
#	56854
#	86416
#	100198
#	125854
#	153124
#
# Disc length: 2423 seconds
#
# Revision: 0
# Processed by: cddbd v1.5.2PL0 Copyright (c) Steve Scherf et al.
# Submitted via: CDex 1.75
#
DISCID=64097508
DTITLE=Wendell Harrison - A Message From the Tribe
DYEAR=1973
DGENRE=Jazz
TTITLE0=What We Need
TTITLE1=Angela's Dilemma (Instrumental)
TTITLE2=Angela's Dilemma (Vocal)
TTITLE3=How Do We End All Of This Madness (Instrumental)
TTITLE4=	How Do We End All Of This Madness (Vocal)
TTITLE5=	Wife
TTITLE6=Merciful
TTITLE7=	Beneficent
EXTD=YEAR: 1973
EXTT0=
EXTT1=
EXTT2=
EXTT3=
EXTT4=
EXTT5=
EXTT6=
EXTT7=
PLAYORDER=
